<svg width="47" height="58" viewBox="0 0 47 58" fill="none" xmlns="http://www.w3.org/2000/svg">
<path d="M41.125 58H5.875C2.63033 58 0 55.4034 0 52.2003V5.80227C0 2.59916 2.63033 0.00252716 5.875 0.00252716H26.4375C26.4638 -0.000842388 26.4905 -0.000842388 26.5168 0.00252716H26.5344C26.5622 0.0111052 26.5907 0.0169337 26.6196 0.0199264C26.8787 0.03632 27.1344 0.0860382 27.3804 0.16782H27.4245H27.4686H27.5038C27.558 0.205303 27.6091 0.247001 27.6566 0.292515C27.9766 0.432937 28.2682 0.629435 28.5173 0.872489L46.1423 18.2717C46.3885 18.5176 46.5875 18.8055 46.7298 19.1214C46.7562 19.1852 46.7767 19.2461 46.7973 19.3128L46.8267 19.394C46.9087 19.6358 46.9571 19.8875 46.9706 20.1422C46.9732 20.171 46.9801 20.1994 46.9912 20.2262V20.2436C46.996 20.2627 46.999 20.2821 47 20.3016V52.2003C47 53.7384 46.381 55.2136 45.2793 56.3013C44.1775 57.389 42.6831 58 41.125 58ZM30.6205 34.801V49.3004H33.3818V43.3846H37.6705V40.9545H33.3818V37.2398H38.1875V34.801H30.6205ZM19.7517 34.801V49.3004H23.2944C24.7805 49.3725 26.2196 48.7752 27.2071 47.6765C28.2203 46.4002 28.7278 44.8034 28.6348 43.1845V40.8357C28.7028 39.2338 28.1811 37.6619 27.166 36.4104C26.2102 35.3364 24.8148 34.7452 23.3678 34.801H19.7517ZM8.8125 34.801V49.3004H11.5738V44.1995H13.4126C14.6406 44.2666 15.84 43.8178 16.7144 42.9642C17.5489 42.0432 17.9816 40.8344 17.9187 39.6003C17.9733 38.3366 17.5408 37.0995 16.7085 36.1379C15.8852 35.2365 14.6966 34.7461 13.4684 34.801H8.8125ZM26.4375 5.80227V20.3016H41.125L26.4375 5.80227ZM23.3414 46.8703H22.513V37.2398H23.5176C24.231 37.1983 24.9169 37.5172 25.3389 38.0866C25.7695 38.9661 25.9541 39.9432 25.8735 40.9168V43.4368C25.938 44.3641 25.7343 45.2903 25.286 46.1076C24.8045 46.6624 24.0772 46.9477 23.3414 46.8703ZM13.4684 41.7607H11.5708V37.2398H13.4949C13.9752 37.2449 14.4191 37.4936 14.6699 37.8981C14.9878 38.4159 15.1412 39.0159 15.1105 39.6206C15.1473 40.1846 14.9956 40.7449 14.6787 41.2155C14.3865 41.5775 13.9369 41.7801 13.4684 41.7607Z" fill="#9C171F"/>
</svg>
