<svg width="29" height="19" viewBox="0 0 29 19" fill="none" xmlns="http://www.w3.org/2000/svg">
<path fill-rule="evenodd" clip-rule="evenodd" d="M29 9.32214C29 9.04747 28.8909 8.78405 28.6967 8.58983C28.5024 8.39561 28.239 8.28649 27.9644 8.28649H3.53755L10.0559 1.7702C10.1522 1.67391 10.2286 1.55959 10.2807 1.43378C10.3328 1.30797 10.3596 1.17313 10.3596 1.03696C10.3596 0.900781 10.3328 0.76594 10.2807 0.64013C10.2286 0.514321 10.1522 0.400008 10.0559 0.303717C9.95963 0.207427 9.84532 0.131046 9.71951 0.0789337C9.5937 0.0268217 9.45886 0 9.32269 0C9.18651 0 9.05167 0.0268217 8.92586 0.0789337C8.80005 0.131046 8.68574 0.207427 8.58945 0.303717L0.304261 8.5889C0.207814 8.6851 0.131295 8.79939 0.0790847 8.92521C0.0268747 9.05103 0 9.18592 0 9.32214C0 9.45836 0.0268747 9.59325 0.0790847 9.71907C0.131295 9.84489 0.207814 9.95918 0.304261 10.0554L8.58945 18.3406C8.68574 18.4369 8.80005 18.5132 8.92586 18.5653C9.05167 18.6175 9.18651 18.6443 9.32269 18.6443C9.45886 18.6443 9.5937 18.6175 9.71951 18.5653C9.84532 18.5132 9.95963 18.4369 10.0559 18.3406C10.1522 18.2443 10.2286 18.13 10.2807 18.0042C10.3328 17.8783 10.3596 17.7435 10.3596 17.6073C10.3596 17.4712 10.3328 17.3363 10.2807 17.2105C10.2286 17.0847 10.1522 16.9704 10.0559 16.8741L3.53755 10.3578H27.9644C28.239 10.3578 28.5024 10.2487 28.6967 10.0545C28.8909 9.86023 29 9.59681 29 9.32214Z" fill="#9C171F"/>
</svg>
