<svg width="28" height="28" viewBox="0 0 28 28" fill="none" xmlns="http://www.w3.org/2000/svg">
<path d="M14 0C6.28009 0 0 6.28009 0 14C0 21.7199 6.28009 28 14 28C21.7199 28 28 21.7199 28 14C28 6.28009 21.7199 0 14 0Z" fill="#9C171F"/>
<path d="M20.3668 11.3248L12.7834 18.908C12.5559 19.1355 12.2573 19.25 11.9586 19.25C11.66 19.25 11.3613 19.1355 11.1338 18.908L7.34222 15.1164C6.88593 14.6603 6.88593 13.9229 7.34222 13.4668C7.79831 13.0105 8.53552 13.0105 8.99182 13.4668L11.9586 16.4336L18.7172 9.67523C19.1733 9.21893 19.9105 9.21893 20.3668 9.67523C20.8229 10.1313 20.8229 10.8685 20.3668 11.3248Z" fill="#FAFAFA"/>
</svg>
