<svg width="20" height="10" viewBox="0 0 20 10" fill="none" xmlns="http://www.w3.org/2000/svg">
<path d="M0.00258249 1.42439C0.0019321 1.0936 0.118126 0.773034 0.330999 0.518332C0.45087 0.374979 0.598089 0.256482 0.764221 0.169626C0.930353 0.0827693 1.11213 0.0292608 1.29916 0.0121649C1.48618 -0.00493095 1.67476 0.0147219 1.85411 0.0699975C2.03346 0.125273 2.20005 0.215084 2.34434 0.334289L9.99787 6.67665L17.5915 0.317771C17.7768 0.199135 17.9449 0.111316 18.1253 0.0583235C18.3057 0.00533116 18.4949 -0.0117901 18.682 0.00794367C18.8691 0.0276775 19.0504 0.0838765 19.2155 0.173312C19.3806 0.262748 19.5263 0.383656 19.6441 0.529087C19.7741 0.675564 19.8722 0.8471 19.9321 1.03293C19.9921 1.21876 20.0126 1.41487 19.9925 1.60895C19.9724 1.80303 19.9121 1.9909 19.8152 2.16076C19.7184 2.33062 19.5872 2.47881 19.4299 2.59602L10.8974 9.67794C10.6419 9.88617 10.3215 10 9.99073 10C9.65999 10 9.33951 9.88617 9.08401 9.67794L0.516628 2.59942C0.343828 2.4574 0.20723 2.27699 0.117916 2.07283C0.0286025 1.86868 -0.010912 1.64652 0.00258249 1.42439Z" fill="#9C171F"/>
</svg>
