<svg width="18" height="24" viewBox="0 0 18 24" fill="none" xmlns="http://www.w3.org/2000/svg">
<path d="M17.8535 5.1465L12.8535 0.146484C12.7598 0.0527344 12.6328 0 12.5 0H1.99997C0.896953 0 0 0.896953 0 2.00002V22C0 23.103 0.896953 24 2.00002 24H16C17.103 24 18 23.103 18 22V5.49998C18 5.36719 17.9473 5.24025 17.8535 5.1465ZM13 1.70705L16.293 5.00002H14C13.4487 5.00002 13 4.55128 13 4.00003V1.70705ZM17 22C17 22.5512 16.5513 23 16 23H2.00002C1.44877 23 1.00003 22.5512 1.00003 22V2.00002C1.00003 1.44877 1.44877 1.00003 2.00002 1.00003H12V4.00003C12 5.10305 12.897 6 14 6H17V22Z" fill="#9E3333"/>
<path d="M11.5493 14.6782C11.0864 14.3139 10.6465 13.9394 10.3535 13.6465C9.97266 13.2656 9.63328 12.8965 9.33839 12.5449C9.79837 11.1235 10 10.3906 10 9.99997C10 8.34031 9.40041 7.99995 8.50003 7.99995C7.81594 7.99995 7.00003 8.35541 7.00003 10.0478C7.00003 10.7939 7.40873 11.6997 8.21878 12.7524C8.02055 13.3574 7.78762 14.0552 7.52592 14.8418C7.39992 15.2192 7.26323 15.5688 7.11867 15.8921C7.00102 15.9443 6.88673 15.9975 6.77639 16.0527C6.37894 16.2514 6.0015 16.4301 5.65139 16.5962C4.05469 17.352 3 17.852 3 18.8393C3 19.5561 3.77883 19.9999 4.5 19.9999C5.42967 19.9999 6.83348 18.7582 7.85888 16.6664C8.92331 16.2465 10.2466 15.9355 11.291 15.7406C12.1279 16.3842 13.0522 16.9999 13.5 16.9999C14.7397 16.9999 15 16.2831 15 15.6821C15 14.4999 13.6494 14.4999 13 14.4999C12.7983 14.5 12.2573 14.5595 11.5493 14.6782ZM4.5 19C4.21434 19 4.02098 18.8652 3.99998 18.8393C3.99998 18.4848 5.05711 17.9838 6.07959 17.4995C6.14452 17.4687 6.21047 17.4379 6.27736 17.4062C5.52638 18.4951 4.78369 19 4.5 19ZM8.00002 10.0478C8.00002 8.99998 8.32523 8.99998 8.50003 8.99998C8.85356 8.99998 9.00005 8.99998 9.00005 9.99997C9.00005 10.2109 8.85942 10.7382 8.60208 11.5615C8.20945 10.957 8.00002 10.439 8.00002 10.0478ZM8.38331 15.4219C8.41458 15.3349 8.44486 15.2471 8.47416 15.1582C8.65969 14.6015 8.8267 14.1015 8.97563 13.6513C9.18314 13.8799 9.40678 14.1138 9.64655 14.3535C9.7403 14.4472 9.9727 14.6582 10.2823 14.9223C9.666 15.0566 9.01027 15.2231 8.38331 15.4219ZM14 15.6821C14 15.9067 14 16 13.5361 16.0029C13.3999 15.9736 13.085 15.7881 12.6963 15.5234C12.8374 15.5078 12.9414 15.5 13 15.5C13.7388 15.5 13.9483 15.5722 14 15.6821Z" fill="#9E3333"/>
</svg>
