<svg width="60" height="60" viewBox="0 0 60 60" fill="none" xmlns="http://www.w3.org/2000/svg">
<path d="M0 10C0 7.34784 1.05357 4.8043 2.92893 2.92893C4.8043 1.05357 7.34784 0 10 0H50C52.6522 0 55.1957 1.05357 57.0711 2.92893C58.9464 4.8043 60 7.34784 60 10V50C60 52.6522 58.9464 55.1957 57.0711 57.0711C55.1957 58.9464 52.6522 60 50 60H10C7.34784 60 4.8043 58.9464 2.92893 57.0711C1.05357 55.1957 0 52.6522 0 50V10ZM10 6.66667C9.11594 6.66667 8.2681 7.01786 7.64298 7.64298C7.01786 8.2681 6.66667 9.11594 6.66667 10V50C6.66667 50.8841 7.01786 51.7319 7.64298 52.357C8.2681 52.9821 9.11594 53.3333 10 53.3333H50C50.8841 53.3333 51.7319 52.9821 52.357 52.357C52.9821 51.7319 53.3333 50.8841 53.3333 50V10C53.3333 9.11594 52.9821 8.2681 52.357 7.64298C51.7319 7.01786 50.8841 6.66667 50 6.66667H10ZM30 13.3333C30.8841 13.3333 31.7319 13.6845 32.357 14.3096C32.9821 14.9348 33.3333 15.7826 33.3333 16.6667V43.3333C33.3333 44.2174 32.9821 45.0652 32.357 45.6904C31.7319 46.3155 30.8841 46.6667 30 46.6667C29.1159 46.6667 28.2681 46.3155 27.643 45.6904C27.0179 45.0652 26.6667 44.2174 26.6667 43.3333V16.6667C26.6667 15.7826 27.0179 14.9348 27.643 14.3096C28.2681 13.6845 29.1159 13.3333 30 13.3333ZM16.6667 23.3333C17.5507 23.3333 18.3986 23.6845 19.0237 24.3096C19.6488 24.9348 20 25.7826 20 26.6667V43.3333C20 44.2174 19.6488 45.0652 19.0237 45.6904C18.3986 46.3155 17.5507 46.6667 16.6667 46.6667C15.7826 46.6667 14.9348 46.3155 14.3096 45.6904C13.6845 45.0652 13.3333 44.2174 13.3333 43.3333V26.6667C13.3333 25.7826 13.6845 24.9348 14.3096 24.3096C14.9348 23.6845 15.7826 23.3333 16.6667 23.3333ZM43.3333 33.3333C44.2174 33.3333 45.0652 33.6845 45.6904 34.3096C46.3155 34.9348 46.6667 35.7826 46.6667 36.6667V43.3333C46.6667 44.2174 46.3155 45.0652 45.6904 45.6904C45.0652 46.3155 44.2174 46.6667 43.3333 46.6667C42.4493 46.6667 41.6014 46.3155 40.9763 45.6904C40.3512 45.0652 40 44.2174 40 43.3333V36.6667C40 35.7826 40.3512 34.9348 40.9763 34.3096C41.6014 33.6845 42.4493 33.3333 43.3333 33.3333Z" fill="#9C171F"/>
</svg>
