<svg width="63" height="60" viewBox="0 0 63 60" fill="none" xmlns="http://www.w3.org/2000/svg">
<path d="M46.6755 26.6917C49.1282 26.6917 51.1165 24.7034 51.1165 22.2506C51.1165 19.7979 49.1282 17.8096 46.6755 17.8096C44.2227 17.8096 42.2344 19.7979 42.2344 22.2506C42.2344 24.7034 44.2227 26.6917 46.6755 26.6917Z" fill="#9C171F"/>
<path d="M57.7814 6.70709H31.6678C30.0395 4.65963 27.9791 2.99707 25.6338 1.83819C23.2885 0.679314 20.7162 0.0527222 18.1007 0.00318554C15.4852 -0.0463511 12.891 0.48239 10.5035 1.55163C8.11596 2.62088 5.99408 4.20423 4.28941 6.18856C2.58475 8.17289 1.33939 10.5092 0.642303 13.0306C-0.0547835 15.5521 -0.186387 18.1963 0.256896 20.7745C0.700179 23.3526 1.70741 25.8011 3.20661 27.9449C4.70582 30.0887 6.66 31.8749 8.92954 33.1759V55.5589C8.92954 56.7368 9.39744 57.8664 10.2303 58.6992C11.0632 59.5321 12.1928 60 13.3706 60H57.7814C58.9592 60 60.0888 59.5321 60.9217 58.6992C61.7545 57.8664 62.2224 56.7368 62.2224 55.5589V11.1482C62.2224 9.97032 61.7545 8.84072 60.9217 8.00785C60.0888 7.17499 58.9592 6.70709 57.7814 6.70709ZM4.48846 17.8098C4.49364 14.8812 5.46358 12.036 7.24826 9.71406C9.03295 7.39215 11.5329 5.72293 14.3616 4.96458C17.1903 4.20622 20.19 4.40099 22.8968 5.51874C25.6037 6.6365 27.8668 8.61497 29.3363 11.1482H13.3706V15.5892H30.9351C31.0576 16.3233 31.1244 17.0656 31.1349 17.8098C31.1244 18.5539 31.0576 19.2962 30.9351 20.0303H17.8117V24.4714H29.3363C27.8668 27.0046 25.6037 28.9831 22.8968 30.1008C20.19 31.2186 17.1903 31.4133 14.3616 30.655C11.5329 29.8966 9.03295 28.2274 7.24826 25.9055C5.46358 23.5836 4.49364 20.7383 4.48846 17.8098ZM57.7814 55.5589H13.3706L24.4733 44.4562L28.004 47.9869C28.836 48.814 29.9616 49.2783 31.1349 49.2783C32.3082 49.2783 33.4338 48.814 34.2659 47.9869L46.6787 35.5741L57.7814 46.6768V55.5589ZM57.7814 40.3927L49.8096 32.4209C48.9775 31.5938 47.8519 31.1295 46.6787 31.1295C45.5054 31.1295 44.3798 31.5938 43.5477 32.4209L31.1349 44.8337L27.6043 41.3031C26.7722 40.4759 25.6466 40.0116 24.4733 40.0116C23.3 40.0116 22.1744 40.4759 21.3423 41.3031L13.3706 49.2748V34.9967C14.8217 35.3703 16.3133 35.5642 17.8117 35.5741C22.5231 35.5741 27.0415 33.7025 30.3729 30.371C33.7044 27.0396 35.576 22.5212 35.576 17.8098C35.5773 15.5251 35.1322 13.2622 34.2659 11.1482H57.7814V40.3927Z" fill="#9C171F"/>
</svg>
