<svg width="60" height="60" viewBox="0 0 60 60" fill="none" xmlns="http://www.w3.org/2000/svg">
<path d="M50.5263 25.2632V15.7895C50.5263 12.3063 47.6937 9.47368 44.2105 9.47368H34.7368C34.7368 4.25053 30.4863 0 25.2632 0C20.04 0 15.7895 4.25053 15.7895 9.47368H6.31579C2.83263 9.47368 0 12.3063 0 15.7895V28.0453L2.08105 28.8C4.61368 29.7158 6.31579 32.1032 6.31579 34.7368C6.31579 37.3705 4.61368 39.7579 2.08105 40.6737L0 41.4284V53.6842C0 57.1674 2.83263 60 6.31579 60H18.5716L19.3263 57.9189C20.2421 55.3863 22.6295 53.6842 25.2632 53.6842C27.8968 53.6842 30.2842 55.3863 31.2 57.9189L31.9547 60H44.2105C47.6937 60 50.5263 57.1674 50.5263 53.6842V44.2105C55.7495 44.2105 60 39.96 60 34.7368C60 29.5137 55.7495 25.2632 50.5263 25.2632ZM50.5263 37.8947H44.2105L44.2011 53.6842H36.1642C33.9189 49.8316 29.7789 47.3684 25.2632 47.3684C20.7474 47.3684 16.6074 49.8316 14.3621 53.6842H6.31579V45.6379C10.1684 43.3926 12.6316 39.2526 12.6316 34.7368C12.6316 30.2211 10.1684 26.0811 6.31579 23.8358V15.7895H22.1053V9.47368C22.1053 8.63616 22.438 7.83294 23.0302 7.24072C23.6224 6.6485 24.4256 6.31579 25.2632 6.31579C26.1007 6.31579 26.9039 6.6485 27.4961 7.24072C28.0883 7.83294 28.4211 8.63616 28.4211 9.47368V15.7895H44.2105V31.5789H50.5263C51.3638 31.5789 52.1671 31.9117 52.7593 32.5039C53.3515 33.0961 53.6842 33.8993 53.6842 34.7368C53.6842 35.5744 53.3515 36.3776 52.7593 36.9698C52.1671 37.562 51.3638 37.8947 50.5263 37.8947Z" fill="#9C171F"/>
</svg>
