<svg width="60" height="60" viewBox="0 0 60 60" fill="none" xmlns="http://www.w3.org/2000/svg">
<path d="M57.8571 0H2.14286L0 2.14286V57.8571L2.14286 60H57.8571L60 57.8571V2.14286L57.8571 0ZM55.7143 55.7143H17.1429V47.1429H27C28.2857 49.7143 31.2857 51.4286 34.2857 51.4286C39 51.4286 42.8571 47.5714 42.8571 42.8571C42.8571 38.1429 39 34.2857 34.2857 34.2857C29.5714 34.2857 25.7143 38.1429 25.7143 42.8571H12.8571V55.7143H4.28571V4.28571H12.8571V14.1429C10.2857 15.4286 8.57143 18.4286 8.57143 21.4286C8.57143 26.1429 12.4286 30 17.1429 30C21.8571 30 25.7143 26.1429 25.7143 21.4286H34.2857C34.2857 26.1429 38.1429 30 42.8571 30C47.5714 30 51.4286 26.1429 51.4286 21.4286C51.4286 16.7143 47.5714 12.8571 42.8571 12.8571C39.8571 12.8571 36.8571 14.5714 35.5714 17.1429H24.4286C23.1429 14.5714 20.1429 12.8571 17.1429 12.8571V4.28571H55.7143V55.7143ZM30 42.8571C30 40.2857 31.7143 38.5714 34.2857 38.5714C36.8571 38.5714 38.5714 40.2857 38.5714 42.8571C38.5714 45.4286 36.8571 47.1429 34.2857 47.1429C31.7143 47.1429 30 45.4286 30 42.8571ZM17.1429 17.1429C19.7143 17.1429 21.4286 18.8571 21.4286 21.4286C21.4286 24 19.7143 25.7143 17.1429 25.7143C14.5714 25.7143 12.8571 24 12.8571 21.4286C12.8571 18.8571 14.5714 17.1429 17.1429 17.1429ZM42.8571 17.1429C45.4286 17.1429 47.1429 18.8571 47.1429 21.4286C47.1429 24 45.4286 25.7143 42.8571 25.7143C40.2857 25.7143 38.5714 24 38.5714 21.4286C38.5714 18.8571 40.2857 17.1429 42.8571 17.1429Z" fill="#9C171F"/>
</svg>
