<svg width="60" height="60" viewBox="0 0 60 60" fill="none" xmlns="http://www.w3.org/2000/svg">
<path d="M51.4286 42.8571C49.9152 42.8645 48.4328 43.287 47.1429 44.0786L40.5214 37.4357C42.0621 35.2624 42.8897 32.6641 42.8897 30C42.8897 27.3359 42.0621 24.7376 40.5214 22.5643L47.1429 15.9214C48.4328 16.713 49.9152 17.1355 51.4286 17.1429C53.1238 17.1429 54.781 16.6402 56.1906 15.6983C57.6002 14.7565 58.6988 13.4178 59.3475 11.8516C59.9963 10.2854 60.166 8.56192 59.8353 6.89923C59.5046 5.23653 58.6882 3.70925 57.4895 2.51052C56.2907 1.31178 54.7635 0.495432 53.1008 0.164701C51.4381 -0.166029 49.7146 0.00371384 48.1484 0.652465C46.5822 1.30122 45.2435 2.39984 44.3017 3.8094C43.3598 5.21897 42.8571 6.87616 42.8571 8.57143C42.8645 10.0848 43.287 11.5672 44.0786 12.8571L37.4357 19.4786C35.2624 17.9379 32.6641 17.1103 30 17.1103C27.3359 17.1103 24.7376 17.9379 22.5643 19.4786L15.9214 12.8571C16.713 11.5672 17.1355 10.0848 17.1429 8.57143C17.1429 6.87616 16.6402 5.21897 15.6983 3.8094C14.7565 2.39984 13.4178 1.30122 11.8516 0.652465C10.2854 0.00371384 8.56192 -0.166029 6.89923 0.164701C5.23653 0.495432 3.70925 1.31178 2.51052 2.51052C1.31178 3.70925 0.495432 5.23653 0.164701 6.89923C-0.166029 8.56192 0.00371384 10.2854 0.652465 11.8516C1.30122 13.4178 2.39984 14.7565 3.8094 15.6983C5.21897 16.6402 6.87616 17.1429 8.57143 17.1429C10.0848 17.1355 11.5672 16.713 12.8571 15.9214L19.4786 22.5643C17.9379 24.7376 17.1103 27.3359 17.1103 30C17.1103 32.6641 17.9379 35.2624 19.4786 37.4357L12.8571 44.0786C11.5672 43.287 10.0848 42.8645 8.57143 42.8571C6.87616 42.8571 5.21897 43.3598 3.8094 44.3017C2.39984 45.2435 1.30122 46.5822 0.652465 48.1484C0.00371384 49.7146 -0.166029 51.4381 0.164701 53.1008C0.495432 54.7635 1.31178 56.2907 2.51052 57.4895C3.70925 58.6882 5.23653 59.5046 6.89923 59.8353C8.56192 60.166 10.2854 59.9963 11.8516 59.3475C13.4178 58.6988 14.7565 57.6002 15.6983 56.1906C16.6402 54.781 17.1429 53.1238 17.1429 51.4286C17.1355 49.9152 16.713 48.4328 15.9214 47.1429L22.5643 40.5214C24.7376 42.0621 27.3359 42.8897 30 42.8897C32.6641 42.8897 35.2624 42.0621 37.4357 40.5214L44.0786 47.1429C43.287 48.4328 42.8645 49.9152 42.8571 51.4286C42.8571 53.1238 43.3598 54.781 44.3017 56.1906C45.2435 57.6002 46.5822 58.6988 48.1484 59.3475C49.7146 59.9963 51.4381 60.166 53.1008 59.8353C54.7635 59.5046 56.2907 58.6882 57.4895 57.4895C58.6882 56.2907 59.5046 54.7635 59.8353 53.1008C60.166 51.4381 59.9963 49.7146 59.3475 48.1484C58.6988 46.5822 57.6002 45.2435 56.1906 44.3017C54.781 43.3598 53.1238 42.8571 51.4286 42.8571ZM51.4286 4.28572C52.2762 4.28572 53.1048 4.53707 53.8096 5.00799C54.5144 5.47891 55.0637 6.14825 55.3881 6.93136C55.7124 7.71447 55.7973 8.57619 55.6319 9.40753C55.4666 10.2389 55.0584 11.0025 54.459 11.6019C53.8597 12.2013 53.096 12.6094 52.2647 12.7748C51.4333 12.9402 50.5716 12.8553 49.7885 12.5309C49.0054 12.2065 48.336 11.6572 47.8651 10.9524C47.3942 10.2477 47.1429 9.41907 47.1429 8.57143C47.1429 7.43479 47.5944 6.3447 48.3981 5.54097C49.2018 4.73725 50.2919 4.28572 51.4286 4.28572ZM4.28572 8.57143C4.28572 7.7238 4.53707 6.8952 5.00799 6.19042C5.47891 5.48563 6.14825 4.93632 6.93136 4.61195C7.71447 4.28757 8.57619 4.2027 9.40753 4.36807C10.2389 4.53343 11.0025 4.94161 11.6019 5.54097C12.2013 6.14034 12.6094 6.90398 12.7748 7.73533C12.9402 8.56668 12.8553 9.42839 12.5309 10.2115C12.2065 10.9946 11.6572 11.664 10.9524 12.1349C10.2477 12.6058 9.41907 12.8571 8.57143 12.8571C7.43479 12.8571 6.3447 12.4056 5.54097 11.6019C4.73725 10.7982 4.28572 9.70807 4.28572 8.57143ZM8.57143 55.7143C7.7238 55.7143 6.8952 55.4629 6.19042 54.992C5.48563 54.5211 4.93632 53.8518 4.61195 53.0686C4.28757 52.2855 4.2027 51.4238 4.36807 50.5925C4.53343 49.7611 4.94161 48.9975 5.54097 48.3981C6.14034 47.7987 6.90398 47.3906 7.73533 47.2252C8.56668 47.0598 9.42839 47.1447 10.2115 47.4691C10.9946 47.7935 11.664 48.3428 12.1349 49.0476C12.6058 49.7523 12.8571 50.5809 12.8571 51.4286C12.8571 52.5652 12.4056 53.6553 11.6019 54.459C10.7982 55.2628 9.70807 55.7143 8.57143 55.7143ZM30 38.5714C28.3047 38.5714 26.6475 38.0687 25.238 37.1269C23.8284 36.185 22.7298 34.8464 22.081 33.2801C21.4323 31.7139 21.2625 29.9905 21.5933 28.3278C21.924 26.6651 22.7403 25.1378 23.9391 23.9391C25.1378 22.7403 26.6651 21.924 28.3278 21.5933C29.9905 21.2625 31.7139 21.4323 33.2801 22.081C34.8464 22.7298 36.185 23.8284 37.1269 25.238C38.0687 26.6475 38.5714 28.3047 38.5714 30C38.5714 32.2733 37.6684 34.4535 36.0609 36.0609C34.4535 37.6684 32.2733 38.5714 30 38.5714ZM51.4286 55.7143C50.5809 55.7143 49.7523 55.4629 49.0476 54.992C48.3428 54.5211 47.7935 53.8518 47.4691 53.0686C47.1447 52.2855 47.0598 51.4238 47.2252 50.5925C47.3906 49.7611 47.7987 48.9975 48.3981 48.3981C48.9975 47.7987 49.7611 47.3906 50.5925 47.2252C51.4238 47.0598 52.2855 47.1447 53.0686 47.4691C53.8518 47.7935 54.5211 48.3428 54.992 49.0476C55.4629 49.7523 55.7143 50.5809 55.7143 51.4286C55.7143 52.5652 55.2628 53.6553 54.459 54.459C53.6553 55.2628 52.5652 55.7143 51.4286 55.7143Z" fill="#9C171F"/>
</svg>
