<svg width="60" height="60" viewBox="0 0 60 60" fill="none" xmlns="http://www.w3.org/2000/svg">
<path d="M55.7143 38.5713H51.4286V42.857H55.7143V55.7141H4.28571V42.857H25.7143V38.5713H4.28571C3.14942 38.5724 2.05999 39.0243 1.25651 39.8278C0.453028 40.6313 0.00113459 41.7207 0 42.857V55.7141C0.00113459 56.8504 0.453028 57.9399 1.25651 58.7434C2.05999 59.5468 3.14942 59.9987 4.28571 59.9999H55.7143C56.8506 59.9987 57.94 59.5468 58.7435 58.7434C59.547 57.9399 59.9989 56.8504 60 55.7141V42.857C59.9989 41.7207 59.547 40.6313 58.7435 39.8278C57.94 39.0243 56.8506 38.5724 55.7143 38.5713Z" fill="#9C171F"/>
<path d="M10.7132 51.4283C11.8966 51.4283 12.856 50.4689 12.856 49.2854C12.856 48.102 11.8966 47.1426 10.7132 47.1426C9.5297 47.1426 8.57031 48.102 8.57031 49.2854C8.57031 50.4689 9.5297 51.4283 10.7132 51.4283Z" fill="#9C171F"/>
<path d="M60 12.8574H42.8571V25.7146H30V42.8574H47.1429V30.0003H60V12.8574ZM42.8571 38.5717H34.2857V30.0003H42.8571V38.5717ZM55.7143 25.7146H47.1429V17.1431H55.7143V25.7146Z" fill="#9C171F"/>
<path d="M34.2874 17.1429H17.1445V0H34.2874V17.1429ZM21.4302 12.8571H30.0017V4.28571H21.4302V12.8571Z" fill="#9C171F"/>
</svg>
