<svg width="60" height="60" viewBox="0 0 60 60" fill="none" xmlns="http://www.w3.org/2000/svg">
<path d="M38.5714 25.7143H55.7143C56.8506 25.7132 57.94 25.2613 58.7435 24.4578C59.547 23.6543 59.9989 22.5649 60 21.4286V4.28571C59.9989 3.14942 59.547 2.05999 58.7435 1.25651C57.94 0.453028 56.8506 0.00113459 55.7143 0H38.5714C37.4351 0.00113459 36.3457 0.453028 35.5422 1.25651C34.7387 2.05999 34.2868 3.14942 34.2857 4.28571H15C13.8637 4.28685 12.7743 4.73874 11.9708 5.54222C11.1673 6.34571 10.7154 7.43513 10.7143 8.57143V17.1429H4.28571C3.14942 17.144 2.05999 17.5959 1.25651 18.3994C0.453028 19.2028 0.00113459 20.2923 0 21.4286V38.5714C0.00113459 39.7077 0.453028 40.7972 1.25651 41.6006C2.05999 42.4041 3.14942 42.856 4.28571 42.8571H8.57143V51.4286C8.57256 52.5649 9.02446 53.6543 9.82794 54.4578C10.6314 55.2613 11.7208 55.7132 12.8571 55.7143H34.2857C34.2868 56.8506 34.7387 57.94 35.5422 58.7435C36.3457 59.547 37.4351 59.9989 38.5714 60H55.7143C56.8506 59.9989 57.94 59.547 58.7435 58.7435C59.547 57.94 59.9989 56.8506 60 55.7143V38.5714C59.9989 37.4351 59.547 36.3457 58.7435 35.5422C57.94 34.7387 56.8506 34.2868 55.7143 34.2857H38.5714C37.4351 34.2868 36.3457 34.7387 35.5422 35.5422C34.7387 36.3457 34.2868 37.4351 34.2857 38.5714V51.4286H12.8571V42.8571H21.4286C22.5649 42.856 23.6543 42.4041 24.4578 41.6006C25.2613 40.7972 25.7132 39.7077 25.7143 38.5714V21.4286C25.7132 20.2923 25.2613 19.2028 24.4578 18.3994C23.6543 17.5959 22.5649 17.144 21.4286 17.1429H15V8.57143H34.2857V21.4286C34.2868 22.5649 34.7387 23.6543 35.5422 24.4578C36.3457 25.2613 37.4351 25.7132 38.5714 25.7143ZM38.5714 55.7143V47.1429H55.7143V55.7143H38.5714ZM55.7143 38.5714V42.8571H38.5714V38.5714H55.7143ZM4.28571 38.5714V30H21.4286V38.5714H4.28571ZM21.4286 25.7143H4.28571V21.4286H21.4286V25.7143ZM38.5714 21.4286V12.8571H55.7143V21.4286H38.5714ZM55.7143 4.28571V8.57143H38.5714V4.28571H55.7143Z" fill="#9C171F"/>
</svg>
