<svg width="50" height="50" viewBox="0 0 50 50" fill="none" xmlns="http://www.w3.org/2000/svg">
<rect width="50" height="50" rx="6" fill="#9C171F"/>
<path fill-rule="evenodd" clip-rule="evenodd" d="M16.707 32.2633C16.3164 32.6538 16.3164 33.287 16.707 33.6775C17.0975 34.068 17.7306 34.068 18.1212 33.6775L25.211 26.5877L32.4023 33.7789C32.7928 34.1695 33.426 34.1695 33.8165 33.7789C34.2071 33.3884 34.2071 32.7553 33.8165 32.3647L26.6252 25.1734L33.6775 18.1212C34.068 17.7306 34.068 17.0975 33.6775 16.707C33.287 16.3164 32.6538 16.3164 32.2633 16.707L25.211 23.7592L18.2602 16.8084C17.8697 16.4179 17.2365 16.4179 16.846 16.8084C16.4554 17.1989 16.4554 17.8321 16.846 18.2226L23.7968 25.1734L16.707 32.2633Z" fill="white"/>
</svg>
