<svg width="10" height="20" viewBox="0 0 10 20" fill="none" xmlns="http://www.w3.org/2000/svg">
<path d="M1.42439 19.9974C1.0936 19.9981 0.773035 19.8819 0.518332 19.669C0.37498 19.5491 0.256483 19.4019 0.169626 19.2358C0.0827701 19.0696 0.0292616 18.8879 0.0121657 18.7008C-0.00493014 18.5138 0.0147227 18.3252 0.0699983 18.1459C0.125274 17.9665 0.215085 17.7999 0.33429 17.6557L6.67665 10.0021L0.317771 2.40846C0.199135 2.22317 0.111316 2.05511 0.0583236 1.87471C0.00533124 1.69431 -0.0117901 1.50513 0.00794373 1.31803C0.0276775 1.13093 0.0838766 0.949618 0.173312 0.7845C0.262748 0.619383 0.383656 0.47372 0.529087 0.355886C0.675564 0.225895 0.8471 0.127845 1.03293 0.0678885C1.21876 0.00793236 1.41487 -0.0126347 1.60895 0.00747713C1.80303 0.0275889 1.9909 0.0879459 2.16076 0.18476C2.33062 0.281574 2.47881 0.412756 2.59602 0.570071L9.67794 9.10255C9.88617 9.35805 10 9.67853 10 10.0093C10 10.34 9.88617 10.6605 9.67794 10.916L2.59942 19.4834C2.4574 19.6562 2.27699 19.7928 2.07283 19.8821C1.86868 19.9714 1.64652 20.0109 1.42439 19.9974Z" fill="#9C171F"/>
</svg>
